<!-- Generated by IcoMoon.io -->
<svg version="1.1" xmlns="http://www.w3.org/2000/svg" width="32" height="32" viewBox="0 0 32 32">
<title>ico-general-usuario</title>
<path d="M12.45 20.265c0.010 0.39 0.020 0.88 0.020 1.49-1.66 0.33-5.74 1.55-8.31 2.64-2.56 1.090-3.040 2.38-3.040 2.38v2.91c0 0.96 0.97 1.060 0.97 1.060h27.82c0 0 0.97-0.1 0.97-1.060v-2.91c0 0-0.49-1.29-3.050-2.38s-6.64-2.31-8.3-2.64c0-0.57 0-1.040 0.010-1.42 2.3-1.13 3.86-3.43 3.86-6.070v-6.19c0-3.77-3.18-6.82-7.11-6.82h-0.44c-3.93 0-7.12 3.050-7.12 6.82v6.19c0 2.59 1.5 4.84 3.72 6zM16.21 28.765h-13.010v-1.46c1.97-1.52 8.19-3.32 9.55-3.57 1.97-0.36 1.8-1.19 1.8-1.19v-1.57c0.42 0.080 0.85 0.11 1.3 0.11h0.44c0.39 0 0.78-0.030 1.16-0.090v1.55c0 0-0.17 0.83 1.8 1.19 1.35 0.25 7.58 2.050 9.55 3.57v1.46h-12.59zM15.38 3.365h1.24c2.52 0 4.57 1.96 4.57 4.37v6.87c0 2.41-2.050 4.37-4.57 4.37h-1.24c-2.53 0-4.57-1.96-4.57-4.37v-6.87c0-2.41 2.040-4.37 4.57-4.37z"></path>
</svg>
